<?xml version="1.0" encoding="utf-8"?>
<!-- Generator: Adobe Illustrator 21.1.0, SVG Export Plug-In . SVG Version: 6.00 Build 0)  -->
<svg version="1.1" id="Capa_1" xmlns="http://www.w3.org/2000/svg" xmlns:xlink="http://www.w3.org/1999/xlink" x="0px" y="0px"
	 viewBox="0 0 305 25" style="enable-background:new 0 0 305 25;" xml:space="preserve">
<style type="text/css">
	.st0{fill:#FFFFFF;}
</style>
<g>
	<path class="st0" d="M17.3,3.2c1.6,1.3,2.4,3.2,2.4,5.6c0,2.4-0.8,4.2-2.4,5.6c-1.6,1.3-3.8,2-6.7,2H4.1v7.4H2.5V1.2h8.1
		C13.4,1.2,15.7,1.9,17.3,3.2z M16.1,13.3c1.3-1.1,1.9-2.6,1.9-4.5c0-2-0.6-3.5-1.9-4.5c-1.3-1.1-3.1-1.6-5.5-1.6H4.1v12.2h6.4
		C13,14.9,14.8,14.4,16.1,13.3z"/>
	<path class="st0" d="M40.9,23.8l-5.4-7.5c-0.8,0.1-1.5,0.2-2.2,0.2h-6.4v7.4h-1.6V1.2h8.1c2.8,0,5.1,0.7,6.7,2
		c1.6,1.3,2.4,3.2,2.4,5.6c0,1.8-0.5,3.3-1.4,4.5c-0.9,1.2-2.2,2.1-3.9,2.6l5.6,7.9H40.9z M33.3,15c2.4,0,4.2-0.5,5.5-1.6
		c1.3-1.1,1.9-2.6,1.9-4.5c0-2-0.6-3.5-1.9-4.5c-1.3-1.1-3.1-1.6-5.5-1.6h-6.4V15H33.3z"/>
	<path class="st0" d="M52.4,22.4c-1.8-1-3.2-2.4-4.2-4.1c-1-1.7-1.5-3.7-1.5-5.8c0-2.1,0.5-4.1,1.5-5.8s2.4-3.1,4.2-4.1
		c1.8-1,3.8-1.5,6-1.5c2.2,0,4.2,0.5,6,1.5c1.8,1,3.2,2.4,4.2,4.1s1.5,3.7,1.5,5.9c0,2.2-0.5,4.1-1.5,5.9c-1,1.7-2.4,3.1-4.2,4.1
		c-1.8,1-3.8,1.5-6,1.5C56.1,23.9,54.2,23.4,52.4,22.4z M63.5,21.1c1.5-0.9,2.7-2,3.6-3.6c0.9-1.5,1.3-3.2,1.3-5.1
		c0-1.9-0.4-3.6-1.3-5.1c-0.9-1.5-2.1-2.7-3.6-3.6C62,3,60.3,2.6,58.4,2.6c-1.9,0-3.6,0.4-5.1,1.3c-1.5,0.9-2.7,2-3.6,3.6
		c-0.9,1.5-1.3,3.2-1.3,5.1c0,1.9,0.4,3.6,1.3,5.1c0.9,1.5,2.1,2.7,3.6,3.6c1.5,0.9,3.3,1.3,5.1,1.3C60.3,22.4,62,22,63.5,21.1z"/>
	<path class="st0" d="M74.5,23.1c-1.1-0.6-1.9-1.4-2.6-2.4l1-1.1c0.6,0.9,1.4,1.6,2.2,2.1c0.8,0.5,1.8,0.7,2.8,0.7
		c1.5,0,2.6-0.4,3.4-1.3c0.7-0.9,1.1-2.2,1.1-4V2.7h-8.3V1.2h10v15.9c0,2.3-0.5,4-1.5,5.1c-1,1.1-2.6,1.7-4.6,1.7
		C76.7,23.9,75.5,23.7,74.5,23.1z"/>
	<path class="st0" d="M107.2,22.3v1.5H91.6V1.2h15.1v1.5H93.3v8.9h12V13h-12v9.3H107.2z"/>
	<path class="st0" d="M116.2,22.5c-1.8-1-3.2-2.4-4.2-4.1c-1-1.7-1.5-3.7-1.5-5.9c0-2.2,0.5-4.1,1.5-5.9c1-1.7,2.4-3.1,4.2-4.1
		c1.8-1,3.8-1.5,6-1.5c1.6,0,3.1,0.3,4.5,0.8c1.4,0.5,2.5,1.3,3.5,2.3l-1,1.1c-1.8-1.8-4.1-2.7-6.9-2.7c-1.9,0-3.6,0.4-5.2,1.3
		c-1.5,0.9-2.8,2-3.6,3.6c-0.9,1.5-1.3,3.2-1.3,5.1c0,1.9,0.4,3.6,1.3,5.1c0.9,1.5,2.1,2.7,3.6,3.6c1.5,0.9,3.3,1.3,5.2,1.3
		c2.8,0,5.1-0.9,6.9-2.7l1,1.1c-1,1-2.1,1.8-3.5,2.4c-1.4,0.5-2.9,0.8-4.5,0.8C119.9,23.9,118,23.5,116.2,22.5z"/>
	<path class="st0" d="M141.1,2.7h-8.1V1.2h17.9v1.5h-8.1v21.1h-1.6V2.7z"/>
	<path class="st0" d="M154.6,1.2h10.3c2.4,0,4.6,0.5,6.5,1.4c1.9,0.9,3.3,2.3,4.4,3.9c1,1.7,1.6,3.7,1.6,5.9c0,2.3-0.5,4.2-1.6,5.9
		c-1,1.7-2.5,3-4.4,3.9c-1.9,0.9-4,1.4-6.5,1.4h-10.3V1.2z M164.6,19.5c2.3,0,4.1-0.6,5.4-1.9c1.3-1.3,2-3,2-5.1
		c0-2.1-0.7-3.9-2-5.1c-1.3-1.3-3.1-1.9-5.4-1.9h-4.8v14H164.6z"/>
	<path class="st0" d="M186.4,22.7c-1.9-1-3.4-2.4-4.4-4.2c-1.1-1.8-1.6-3.8-1.6-6c0-2.2,0.5-4.2,1.6-6c1.1-1.8,2.5-3.2,4.4-4.2
		c1.9-1,4-1.5,6.3-1.5c2.3,0,4.4,0.5,6.3,1.5c1.9,1,3.3,2.4,4.4,4.2c1.1,1.8,1.6,3.8,1.6,6c0,2.2-0.5,4.2-1.6,6
		c-1.1,1.8-2.5,3.2-4.4,4.2c-1.9,1-4,1.5-6.3,1.5C190.4,24.2,188.3,23.7,186.4,22.7z M196.3,18.8c1.1-0.6,1.9-1.5,2.5-2.6
		c0.6-1.1,0.9-2.3,0.9-3.7c0-1.4-0.3-2.6-0.9-3.7c-0.6-1.1-1.5-2-2.5-2.6c-1.1-0.6-2.3-0.9-3.6-0.9c-1.3,0-2.5,0.3-3.6,0.9
		c-1.1,0.6-1.9,1.5-2.5,2.6c-0.6,1.1-0.9,2.3-0.9,3.7c0,1.4,0.3,2.6,0.9,3.7c0.6,1.1,1.5,1.9,2.5,2.6c1.1,0.6,2.3,0.9,3.6,0.9
		C194.1,19.7,195.3,19.4,196.3,18.8z"/>
	<path class="st0" d="M214.2,22.7c-1.9-1-3.3-2.4-4.4-4.2c-1.1-1.8-1.6-3.8-1.6-6c0-2.2,0.5-4.2,1.6-6c1.1-1.8,2.5-3.2,4.4-4.2
		c1.9-1,3.9-1.5,6.3-1.5c2,0,3.7,0.3,5.3,1c1.6,0.7,2.9,1.7,4,3l-3.4,3.1c-1.5-1.8-3.4-2.6-5.7-2.6c-1.4,0-2.6,0.3-3.7,0.9
		s-1.9,1.5-2.6,2.6c-0.6,1.1-0.9,2.3-0.9,3.7c0,1.4,0.3,2.6,0.9,3.7c0.6,1.1,1.5,1.9,2.6,2.6c1.1,0.6,2.3,0.9,3.7,0.9
		c2.3,0,4.1-0.9,5.7-2.7l3.4,3.1c-1.1,1.3-2.4,2.3-4,3c-1.6,0.7-3.4,1-5.3,1C218.1,24.2,216,23.7,214.2,22.7z"/>
	<path class="st0" d="M239.3,5.5h-7.2V1.2h19.7v4.3h-7.2v18.3h-5.2V5.5z"/>
	<path class="st0" d="M259.4,22.7c-1.9-1-3.4-2.4-4.4-4.2c-1.1-1.8-1.6-3.8-1.6-6c0-2.2,0.5-4.2,1.6-6c1.1-1.8,2.5-3.2,4.4-4.2
		s4-1.5,6.3-1.5c2.3,0,4.4,0.5,6.3,1.5s3.3,2.4,4.4,4.2c1.1,1.8,1.6,3.8,1.6,6c0,2.2-0.5,4.2-1.6,6c-1.1,1.8-2.5,3.2-4.4,4.2
		c-1.9,1-4,1.5-6.3,1.5C263.3,24.2,261.2,23.7,259.4,22.7z M269.3,18.8c1.1-0.6,1.9-1.5,2.5-2.6s0.9-2.3,0.9-3.7
		c0-1.4-0.3-2.6-0.9-3.7s-1.5-2-2.5-2.6c-1.1-0.6-2.3-0.9-3.6-0.9c-1.3,0-2.5,0.3-3.6,0.9c-1.1,0.6-1.9,1.5-2.5,2.6
		c-0.6,1.1-0.9,2.3-0.9,3.7c0,1.4,0.3,2.6,0.9,3.7c0.6,1.1,1.5,1.9,2.5,2.6c1.1,0.6,2.3,0.9,3.6,0.9C267,19.7,268.2,19.4,269.3,18.8
		z"/>
	<path class="st0" d="M296.9,23.8l-4.4-6.3h-0.3h-4.5v6.3h-5.2V1.2h9.8c2,0,3.7,0.3,5.2,1c1.5,0.7,2.6,1.6,3.4,2.8
		c0.8,1.2,1.2,2.7,1.2,4.4s-0.4,3.1-1.2,4.3c-0.8,1.2-1.9,2.1-3.4,2.8l5.1,7.3H296.9z M295.6,6.5c-0.8-0.7-2-1-3.6-1h-4.3v7.9h4.3
		c1.6,0,2.8-0.3,3.6-1c0.8-0.7,1.2-1.7,1.2-2.9C296.8,8.1,296.4,7.2,295.6,6.5z"/>
</g>
</svg>
